<svg width="33" height="30" viewBox="0 0 33 30" fill="none" xmlns="http://www.w3.org/2000/svg">
<g id="Frame 21">
<path id="Vector" d="M9 3H6V6H9V3Z" fill="#FF0000"/>
<path id="Vector_2" d="M6 3H3V6H6V3Z" fill="#FF0000"/>
<path id="Vector_3" d="M9 6H6V9H9V6Z" fill="#FF0000"/>
<path id="Vector_4" d="M12 9H9V12H12V9Z" fill="#FF0000"/>
<path id="Vector_5" d="M15 6H12V9H15V6Z" fill="#FF0000"/>
<path id="Vector_6" d="M12 3H9V6H12V3Z" fill="#FF0000"/>
<path id="Vector_7" d="M6 6H3V9H6V6Z" fill="#FF0000"/>
<path id="Vector_8" d="M6 9H3V12H6V9Z" fill="#FF0000"/>
<path id="Vector_9" d="M6 12H3V15H6V12Z" fill="#FF0000"/>
<path id="Vector_10" d="M3 6H0V9H3V6Z" fill="#FF0000"/>
<path id="Vector_11" d="M3 9H0V12H3V9Z" fill="#FF0000"/>
<path id="Vector_12" d="M3 12H0V15H3V12Z" fill="#FF0000"/>
<path id="Vector_13" d="M15 3H12V6H15V3Z" fill="#FF0000"/>
<path id="Vector_14" d="M9 12H6V15H9V12Z" fill="#FF0000"/>
<path id="Vector_15" d="M9 15H6V18H9V15Z" fill="#FF0000"/>
<path id="Vector_16" d="M12 12H9V15H12V12Z" fill="#FF0000"/>
<path id="Vector_17" d="M12 15H9V18H12V15Z" fill="#FF0000"/>
<path id="Vector_18" d="M12 18H9V21H12V18Z" fill="#FF0000"/>
<path id="Vector_19" d="M15 12H12V15H15V12Z" fill="#FF0000"/>
<path id="Vector_20" d="M15 9H12V12H15V9Z" fill="#FF0000"/>
<path id="Vector_21" d="M15 18H12V21H15V18Z" fill="#FF0000"/>
<path id="Vector_22" d="M15 15H12V18H15V15Z" fill="#FF0000"/>
<path id="Vector_23" d="M15 21H12V24H15V21Z" fill="#FF0000"/>
<path id="Vector_24" d="M24 3H27V6H24V3Z" fill="#FF0000"/>
<path id="Vector_25" d="M27 3H30V6H27V3Z" fill="#FF0000"/>
<path id="Vector_26" d="M24 6H27V9H24V6Z" fill="#FF0000"/>
<path id="Vector_27" d="M21 6H24V9H21V6Z" fill="#FF0000"/>
<path id="Vector_28" d="M24 9H27V12H24V9Z" fill="#FF0000"/>
<path id="Vector_29" d="M21 9H24V12H21V9Z" fill="#FF0000"/>
<path id="Vector_30" d="M18 6H21V9H18V6Z" fill="#FF0000"/>
<path id="Vector_31" d="M21 3H24V6H21V3Z" fill="#FF0000"/>
<path id="Vector_32" d="M27 6H30V9H27V6Z" fill="#FF0000"/>
<path id="Vector_33" d="M30 6H33V9H30V6Z" fill="#FF0000"/>
<path id="Vector_34" d="M30 9H33V12H30V9Z" fill="#FF0000"/>
<path id="Vector_35" d="M30 12H33V15H30V12Z" fill="#FF0000"/>
<path id="Vector_36" d="M27 9H30V12H27V9Z" fill="#FF0000"/>
<path id="Vector_37" d="M27 12H30V15H27V12Z" fill="#FF0000"/>
<path id="Vector_38" d="M18 3H21V6H18V3Z" fill="#FF0000"/>
<path id="Vector_39" d="M9 0H6V3H9V0Z" fill="#FF0000"/>
<path id="Vector_40" d="M12 0H9V3H12V0Z" fill="#FF0000"/>
<path id="Vector_41" d="M15 0H12V3H15V0Z" fill="#FF0000"/>
<path id="Vector_42" d="M24 0H27V3H24V0Z" fill="#FF0000"/>
<path id="Vector_43" d="M21 0H24V3H21V0Z" fill="#FF0000"/>
<path id="Vector_44" d="M18 0H21V3H18V0Z" fill="#FF0000"/>
<path id="Vector_45" d="M24 12H27V15H24V12Z" fill="#FF0000"/>
<path id="Vector_46" d="M24 15H27V18H24V15Z" fill="#FF0000"/>
<path id="Vector_47" d="M21 12H24V15H21V12Z" fill="#FF0000"/>
<path id="Vector_48" d="M21 15H24V18H21V15Z" fill="#FF0000"/>
<path id="Vector_49" d="M21 18H24V21H21V18Z" fill="#FF0000"/>
<path id="Vector_50" d="M18 12H21V15H18V12Z" fill="#FF0000"/>
<path id="Vector_51" d="M18 9H21V12H18V9Z" fill="#FF0000"/>
<path id="Vector_52" d="M18 18H21V21H18V18Z" fill="#FF0000"/>
<path id="Vector_53" d="M18 15H21V18H18V15Z" fill="#FF0000"/>
<path id="Vector_54" d="M18 21H21V24H18V21Z" fill="#FF0000"/>
<path id="Vector_55" d="M18 6H15V9H18V6Z" fill="#FF0000"/>
<path id="Vector_56" d="M18 3H15V6H18V3Z" fill="#FF0000"/>
<path id="Vector_57" d="M18 12H15V15H18V12Z" fill="#FF0000"/>
<path id="Vector_58" d="M18 9H15V12H18V9Z" fill="#FF0000"/>
<path id="Vector_59" d="M18 18H15V21H18V18Z" fill="#FF0000"/>
<path id="Vector_60" d="M18 15H15V18H18V15Z" fill="#FF0000"/>
<path id="Vector_61" d="M18 21H15V24H18V21Z" fill="#FF0000"/>
<path id="Vector_62" d="M18 24H15V27H18V24Z" fill="#FF0000"/>
<path id="Vector_63" d="M18 27H15V30H18V27Z" fill="#FF0000"/>
<path id="Vector_64" d="M27 15H30V18H27V15Z" fill="#FF0000"/>
<path id="Vector_65" d="M24 18H27V21H24V18Z" fill="#FF0000"/>
<path id="Vector_66" d="M21 21H24V24H21V21Z" fill="#FF0000"/>
<path id="Vector_67" d="M21 24H18V27H21V24Z" fill="#FF0000"/>
<path id="Vector_68" d="M6 15H3V18H6V15Z" fill="#FF0000"/>
<path id="Vector_69" d="M9 18H6V21H9V18Z" fill="#FF0000"/>
<path id="Vector_70" d="M12 21H9V24H12V21Z" fill="#FF0000"/>
<path id="Vector_71" d="M15 24H12V27H15V24Z" fill="#FF0000"/>
</g>
</svg>
